<!-- Generated by IcoMoon.io -->
<svg version="1.1" xmlns="http://www.w3.org/2000/svg" width="14" height="14" viewBox="0 0 32 32">
<title>drivingForm</title>
<path fill="#737373" d="M16 0c-8.81 0-16 7.191-16 16s7.191 16 16 16c8.81 0 16-7.191 16-16s-7.191-16-16-16zM16 3.813c6.083 0 11.139 4.479 12.043 10.313h-3.251c-2.061 0-4.020-0.827-5.373-2.269-1.85-1.972-4.987-1.972-6.838-0-1.353 1.442-3.312 2.27-5.373 2.27h-3.251c0.905-5.833 5.961-10.313 12.043-10.313zM16 19.75c-1.551 0-2.813-1.262-2.813-2.812s1.262-2.813 2.813-2.813c1.551 0 2.813 1.262 2.813 2.813s-1.262 2.812-2.813 2.812zM4.651 20.444c1.073-0.421 1.848-0.694 2.911-0.694 3.418 0 6.076 3.046 5.561 6.468h-0.002c-0.076 0.524-0.227 1.032-0.444 1.509-3.672-1.042-6.644-3.766-8.026-7.284zM19.323 27.727c-0.223-0.49-0.37-0.998-0.445-1.509h-0.002c-0.6-3.988 3.081-7.278 6.897-6.308 0.402 0.102 0.906 0.271 1.576 0.534-1.382 3.517-4.354 6.241-8.026 7.283z"></path>
</svg>
