<!-- Generated by IcoMoon.io -->
<svg version="1.1" xmlns="http://www.w3.org/2000/svg" width="32" height="32" viewBox="0 0 32 32">
<title>fin</title>
<path fill="#6d010c" d="M27.314 4.686c-3.022-3.022-7.040-4.686-11.314-4.686s-8.292 1.664-11.314 4.686c-3.022 3.022-4.686 7.040-4.686 11.314s1.664 8.292 4.686 11.314c3.022 3.022 7.040 4.686 11.314 4.686s8.292-1.664 11.314-4.686c3.022-3.022 4.686-7.040 4.686-11.314s-1.664-8.292-4.686-11.314zM16 15c2.481 0 4.5 2.019 4.5 4.5 0 2.055-1.385 3.791-3.27 4.328-0.135 0.039-0.23 0.16-0.23 0.301v0.843c0 0.538-0.414 1.002-0.952 1.027-0.574 0.027-1.048-0.43-1.048-0.999v-0.871c0-0.14-0.094-0.262-0.229-0.301-1.877-0.534-3.258-2.257-3.271-4.3-0.003-0.545 0.425-1.012 0.97-1.027 0.566-0.016 1.029 0.438 1.029 1 0 1.438 1.22 2.596 2.679 2.494 1.231-0.086 2.229-1.084 2.315-2.315 0.102-1.459-1.056-2.678-2.494-2.678-2.481 0-4.5-2.019-4.5-4.5 0-2.055 1.385-3.791 3.27-4.328 0.135-0.039 0.23-0.16 0.23-0.301v-0.843c0-0.538 0.414-1.002 0.952-1.027 0.574-0.027 1.048 0.431 1.048 0.999v0.871c0 0.14 0.094 0.262 0.229 0.301 1.877 0.534 3.258 2.257 3.271 4.3 0.003 0.545-0.425 1.012-0.971 1.027-0.566 0.016-1.029-0.438-1.029-1 0-1.438-1.22-2.596-2.679-2.494-1.231 0.086-2.229 1.084-2.315 2.315-0.102 1.459 1.056 2.678 2.494 2.678z"></path>
</svg>
