<!-- Generated by IcoMoon.io -->
<svg version="1.1" xmlns="http://www.w3.org/2000/svg" width="37" height="32" viewBox="0 0 37 32">
<title>mailForm</title>
<path fill="#737373" opacity="0.5" d="M33.357 2.071h-30.143c-0.495 0-0.958 0.122-1.377 0.322l16.377 16.377 3.671-3.528c0 0 0-0 0-0.001s0-0 0-0l12.849-12.848c-0.419-0.201-0.883-0.322-1.378-0.322z"></path>
<path fill="#737373" opacity="0.5" d="M36.25 3.909l-12.092 12.091 12.091 12.091c0.2-0.419 0.322-0.882 0.322-1.377v-21.429c0-0.495-0.121-0.958-0.322-1.377z"></path>
<path fill="#737373" opacity="0.5" d="M0.322 3.909c-0.201 0.419-0.322 0.882-0.322 1.377v21.429c0 0.494 0.121 0.958 0.322 1.377l12.092-12.091-12.091-12.091z"></path>
<path fill="#737373" opacity="0.5" d="M22.643 17.515l-3.671 3.528c-0.209 0.209-0.483 0.314-0.758 0.314s-0.548-0.105-0.758-0.314l-3.528-3.528-12.092 12.091c0.419 0.201 0.883 0.322 1.378 0.322h30.143c0.495 0 0.958-0.122 1.377-0.322l-12.091-12.091z"></path>
</svg>
