<!-- Generated by IcoMoon.io -->
<svg version="1.1" xmlns="http://www.w3.org/2000/svg" width="32" height="32" viewBox="0 0 32 32">
<title>phone</title>
<path fill="#811520" d="M31.161 23.485l-4.475-4.466c-1.598-1.595-4.315-0.957-4.955 1.116-0.479 1.436-2.078 2.233-3.516 1.914-3.196-0.797-7.512-4.944-8.311-8.293-0.479-1.436 0.479-3.030 1.918-3.509 2.078-0.638 2.717-3.349 1.119-4.944l-4.475-4.466c-1.279-1.116-3.197-1.116-4.315 0l-3.037 3.030c-3.037 3.19 0.32 11.643 7.831 19.139s15.982 11.005 19.179 7.815l3.037-3.030c1.119-1.276 1.119-3.19 0-4.306z"></path>
</svg>
