<!-- Generated by IcoMoon.io -->
<svg version="1.1" xmlns="http://www.w3.org/2000/svg" width="30" height="28" viewBox="0 0 34 32">
<title>cool</title>
<path fill="#6d010c" d="M5.53 11.061h-4.424c-0.611 0-1.106 0.495-1.106 1.106v17.697c0 0.611 0.495 1.106 1.106 1.106h4.424c0.611 0 1.106-0.495 1.106-1.106v-17.697c0-0.611-0.495-1.106-1.106-1.106z"></path>
<path fill="#6d010c" d="M33.16 13.993c-0.195-1.716-1.798-2.932-3.525-2.932h-8.623c0.733-1.312 1.126-5.024 1.109-6.54-0.029-2.51-2.107-4.521-4.617-4.521h-0.913c-0.611 0-1.106 0.495-1.106 1.106 0 2.558-0.996 7.174-2.874 9.053-1.264 1.264-2.345 1.722-3.762 2.431v16.597c2.17 0.723 4.925 1.784 9.124 1.784h7.235c2.384 0 4.241-2.208 3.317-4.541 1.407-0.383 2.445-1.674 2.445-3.202 0-0.431-0.083-0.844-0.233-1.223 2.372-0.646 3.245-3.575 1.599-5.414 0.605-0.676 0.938-1.6 0.825-2.598z"></path>
</svg>
