<!-- Generated by IcoMoon.io -->
<svg version="1.1" xmlns="http://www.w3.org/2000/svg" width="12" height="17" viewBox="0 0 20 32">
<title>marker</title>
<path fill="#737373" d="M10.068 0h-0.046c-5.526 0-10.022 4.494-10.022 10.019 0 3.621 1.649 8.4 4.902 14.205 2.411 4.303 4.856 7.599 4.881 7.632 0.068 0.091 0.175 0.145 0.289 0.145 0.003 0 0.007 0 0.010-0 0.117-0.003 0.226-0.063 0.291-0.161 0.024-0.037 2.452-3.703 4.847-8.187 3.233-6.052 4.872-10.639 4.872-13.634-0-5.524-4.496-10.019-10.022-10.019zM14.694 10.263c0 2.564-2.086 4.649-4.649 4.649s-4.649-2.085-4.649-4.649c0-2.563 2.086-4.649 4.649-4.649s4.649 2.086 4.649 4.649z"></path>
</svg>
