<!-- Generated by IcoMoon.io -->
<svg version="1.1" xmlns="http://www.w3.org/2000/svg" width="29" height="28" viewBox="0 0 34 32">
<title>star</title>
<path fill="#6d010c" d="M33.242 12.058c-0.115-0.353-0.42-0.61-0.787-0.664l-10.32-1.5-4.615-9.351c-0.164-0.333-0.503-0.544-0.875-0.544s-0.71 0.211-0.874 0.544l-4.616 9.351-10.32 1.5c-0.367 0.053-0.673 0.311-0.787 0.664s-0.019 0.741 0.247 1l7.467 7.279-1.763 10.278c-0.063 0.366 0.088 0.736 0.388 0.954 0.17 0.123 0.371 0.186 0.573 0.186 0.155 0 0.311-0.037 0.454-0.112l9.23-4.853 9.23 4.853c0.329 0.173 0.727 0.144 1.027-0.074s0.451-0.588 0.388-0.954l-1.763-10.278 7.468-7.279c0.266-0.259 0.362-0.646 0.247-1z"></path>
</svg>
